<svg width="1200" height="900" viewBox="0 0 1200 900" fill="none" xmlns="http://www.w3.org/2000/svg" role="img" aria-labelledby="title desc">
  <title id="title">Dashboard IA placeholder</title>
  <desc id="desc">Interface placeholder pour agents IA et automatisations.</desc>
  <rect width="1200" height="900" fill="#F5EDE4"/>
  <rect x="110" y="100" width="980" height="700" rx="8" fill="white" stroke="#1A1A1A" stroke-opacity="0.1"/>
  <rect x="160" y="160" width="300" height="160" rx="8" fill="#1A1A1A"/>
  <rect x="500" y="160" width="540" height="160" rx="8" fill="#FFC5A8"/>
  <rect x="160" y="370" width="260" height="290" rx="8" fill="#F5EDE4"/>
  <rect x="470" y="370" width="260" height="290" rx="8" fill="#F5EDE4"/>
  <rect x="780" y="370" width="260" height="290" rx="8" fill="#F5EDE4"/>
  <path d="M205 570L280 495L340 535L392 455" stroke="#FF6B35" stroke-width="16" stroke-linecap="round" stroke-linejoin="round"/>
  <path d="M515 585H690" stroke="#1A1A1A" stroke-width="14" stroke-linecap="round"/>
  <path d="M515 535H650" stroke="#FF6B35" stroke-width="14" stroke-linecap="round"/>
  <path d="M825 535H995" stroke="#1A1A1A" stroke-width="14" stroke-linecap="round"/>
  <path d="M825 585H930" stroke="#FF6B35" stroke-width="14" stroke-linecap="round"/>
  <circle cx="245" cy="240" r="36" fill="#FF6B35"/>
  <path d="M315 224H405" stroke="white" stroke-width="12" stroke-linecap="round"/>
  <path d="M315 260H380" stroke="white" stroke-width="12" stroke-linecap="round"/>
  <text x="540" y="250" fill="#1A1A1A" font-family="Inter, Arial, sans-serif" font-size="44" font-weight="800">Roadmap IA</text>
  <text x="540" y="294" fill="#555555" font-family="Inter, Arial, sans-serif" font-size="24" font-weight="600">Audit, agents et automatisations</text>
</svg>
